<svg width="198" height="59" viewBox="0 0 198 59" fill="none" xmlns="http://www.w3.org/2000/svg">
<path d="M117.017 45.3955V19.7114H121.348V45.3955H117.017Z" fill="#0064F0"/>
<path d="M178.404 35.4871C178.404 29.1378 182.625 25.3584 188.22 25.3584C194.39 25.3584 197.999 29.7622 197.999 35.4871C197.999 42.0565 193.921 45.9447 188.22 45.9447C182.014 45.9447 178.404 41.5047 178.404 35.4871ZM193.669 35.4871C193.669 31.6352 191.539 29.0654 188.22 29.0654C184.9 29.0654 182.735 31.6352 182.735 35.4871C182.735 39.7431 185.081 42.2377 188.22 42.2377C191.649 42.2377 193.669 39.3752 193.669 35.4871Z" fill="#0064F0"/>
<path d="M134.77 25.3608C133.38 25.3608 132.095 25.7009 131.004 26.2834C130.006 26.8799 129.14 27.6491 128 31.0969L127.484 30.9129C127.484 30.9129 128.255 28.3599 127.95 25.9489H124.521V45.3953H128.778V33.6165C128.814 31.0858 130.691 29.1403 133.468 29.1403C135.85 29.1403 137.256 30.5701 137.256 32.7358V45.3953H141.513V32.5156C141.513 28.148 138.843 25.3608 134.765 25.3608H134.77Z" fill="#0064F0"/>
<path d="M176.675 25.7261C174.553 25.7261 173.133 26.5232 171.872 27.7245C171.245 28.3878 170.285 29.263 169.545 31.0775L169.068 30.9103C169.068 30.9103 169.943 27.9084 169.529 25.9463H166.1V45.3926H170.357V35.7795C170.357 31.5458 171.626 29.9459 176.672 29.9459H177.393V25.7261H176.672H176.675Z" fill="#0064F0"/>
<path d="M155.421 35.6737C160.185 35.6737 163.721 32.9562 163.721 27.7832C163.721 23.1954 160.582 19.7114 155.421 19.7114H144.695V45.3955H149.026V35.6737H155.421ZM155.205 32.1507H149.026V23.6748H155.205C157.693 23.6748 159.319 25.3639 159.319 27.7832C159.319 30.2025 157.913 32.1507 155.205 32.1507Z" fill="#0064F0"/>
<path d="M95.084 35.5253C95.084 29.1398 99.3051 25.3604 104.864 25.3604C110.096 25.3604 113.632 28.6269 113.994 33.4683H109.809C109.411 30.7898 107.536 29.0645 104.828 29.0645C101.58 29.0645 99.4148 31.5591 99.4148 35.5225C99.4148 39.7785 101.797 42.2369 104.971 42.2369C107.569 42.2369 109.373 40.5478 109.806 37.7606H113.991C113.487 42.7887 110.058 45.9438 104.971 45.9438C98.7268 45.9438 95.084 41.3951 95.084 35.5225V35.5253Z" fill="#002DA5"/>
<path d="M59.3055 23.6714H72.8735V19.708H54.9747V45.3949H59.3055V34.2767H71.8976V30.7537H59.3055V23.6714Z" fill="#002DA5"/>
<path d="M93.3681 42.0168H93.3544C92.8692 42.014 92.4855 41.6015 92.4855 41.111V32.3731C92.4855 28.2257 89.4347 25.3633 84.2762 25.3633C79.1176 25.3633 75.7242 28.2257 75.3268 32.3341H79.6219C79.8741 30.3161 81.6777 28.9225 84.2049 28.9225C86.7321 28.9225 88.7358 30.3022 88.7714 32.2087C88.7358 33.75 85.9728 33.7305 83.0865 34.0593C79.3697 34.4997 74.9321 35.4529 74.8964 40.0044C74.8608 43.6362 77.7471 45.8018 82.1491 45.8018C83.1112 45.8018 83.9719 45.6903 84.7366 45.4813C86.6389 44.9322 87.7792 43.1902 88.7714 41.2671C88.9359 40.9465 89.0976 40.6204 89.2565 40.2971L89.7417 40.4588C89.7417 40.4588 89.5855 40.7904 89.421 41.3702C88.8536 43.3575 90.2954 45.367 92.332 45.3893C92.3484 45.3893 92.3676 45.3893 92.384 45.3893C92.3895 45.3893 92.395 45.3893 92.4005 45.3893H94.5604V42.014H93.3763L93.3681 42.0168ZM88.7687 37.5015V38.2262C88.7687 40.8322 85.9345 42.3875 83.0126 42.3875C80.5237 42.3875 79.1888 41.3981 79.1888 39.709C79.1888 37.6548 81.1733 37.3232 83.5553 37.0305C85.5754 36.7741 88.0478 36.6487 88.7714 35.5087V37.4988L88.7687 37.5015Z" fill="#002DA5"/>
<path d="M36.1189 58.3948L2.01809 54.2893C1.49729 54.2279 1.10258 53.7875 1.08339 53.2552L0.000675375 20.1795C-0.0239937 19.4659 0.631118 18.928 1.31363 19.098L31.1659 26.604C31.5716 26.7043 31.8786 27.0388 31.9526 27.4568L37.2839 57.1322C37.4127 57.8457 36.8261 58.4812 36.1189 58.3948Z" fill="#002DA5"/>
<path d="M40.436 54.9528L8.813 47.118C8.35251 47.0037 8.02086 46.5912 8.00442 46.109L6.86964 11.4223C6.84223 10.6224 7.65081 10.0761 8.36621 10.4078L35.7653 23.1063C36.0806 23.2512 36.3053 23.5466 36.3683 23.8922L41.727 53.7153C41.8641 54.4818 41.1788 55.1396 40.436 54.9556V54.9528Z" fill="#0064F0"/>
<path d="M44.0134 51.084L16.0524 39.0377C15.6714 38.8733 15.422 38.5025 15.4083 38.0817L14.2105 1.48014C14.1803 0.568724 15.2082 0.0363677 15.9154 0.591021L39.6909 19.2792C39.8964 19.4409 40.039 19.675 40.0856 19.937L45.4689 49.8994C45.6197 50.7412 44.7891 51.4185 44.0134 51.084Z" fill="#2DA0FF"/>
<path d="M36.371 23.8927C36.308 23.5471 36.0832 23.2517 35.768 23.1067L14.5964 13.293L15.4078 38.0824C15.4215 38.5004 15.6737 38.8739 16.0519 39.0384L41.0225 49.797L36.3683 23.8927H36.371Z" fill="#2391F5"/>
<path d="M16.0524 39.035C15.6714 38.8706 15.422 38.4999 15.4082 38.079L14.8984 22.5125L7.17151 20.5698L8.00753 46.1062C8.02398 46.5884 8.35288 47.0009 8.81611 47.1151L36.7305 54.033L35.5437 47.4329L16.0524 39.035Z" fill="#0046E1"/>
</svg>
